Coordinates
version=1
nRows=38
nColumns=12
inDegrees=yes

Units are S.I. units (second, meters, Newtons, ...)
Angles are in degrees

endheader
time	SC_y	SC_z	SC_x	AC_y	AC_z	AC_x	GH_y	GH_z	GH_yy	EL_x	PS_y
       0.0              -27.75         -4.175          67.54          46.25          9.042          4.852          39.49           18.1         -81.24          76.74          123.3
  0.003209              -27.75         -4.175          67.54          46.25          9.041           4.85          39.51          18.09         -81.22          76.75          123.3
  0.006419              -27.75         -4.175          67.53          46.25           9.04          4.848          39.53          18.09          -81.2          76.76          123.3
  0.009628              -27.75         -4.174          67.53          46.25          9.038          4.846          39.55          18.09         -81.18          76.76          123.3
   0.01284              -27.75         -4.174          67.52          46.25          9.037          4.843          39.57          18.08         -81.15          76.77          123.3
   0.01605              -27.75         -4.173          67.52          46.25          9.035          4.841          39.59          18.08         -81.13          76.78          123.3
   0.01926              -27.75         -4.173          67.51          46.25          9.034          4.838          39.62          18.07          -81.1          76.79          123.3
   0.02247              -27.75         -4.172          67.51          46.25          9.032          4.835          39.64          18.07         -81.07           76.8          123.3
   0.02567              -27.75         -4.171           67.5          46.25           9.03          4.832          39.67          18.07         -81.04          76.81          123.3
   0.02888              -27.75         -4.171           67.5          46.24          9.028          4.829           39.7          18.06         -81.01          76.82          123.3
   0.03209              -27.75          -4.17          67.49          46.24          9.025          4.825          39.73          18.05         -80.97          76.83          123.3
    0.0353              -27.75         -4.169          67.48          46.24          9.023          4.822          39.76          18.05         -80.93          76.85          123.3
   0.03851              -27.75         -4.168          67.47          46.24           9.02          4.818           39.8          18.04         -80.89          76.86          123.3
   0.04172              -27.75         -4.167          67.46          46.24          9.017          4.813          39.84          18.04         -80.85          76.87          123.3
   0.04493              -27.75         -4.166          67.45          46.24          9.014          4.808          39.88          18.03          -80.8          76.89          123.3
   0.04814              -27.75         -4.165          67.44          46.23          9.011          4.803          39.93          18.02         -80.75          76.91          123.3
   0.05135              -27.75         -4.164          67.43          46.23          9.007          4.798          39.98          18.01         -80.69          76.93          123.3
   0.05456              -27.75         -4.163          67.42          46.23          9.003          4.791          40.03           18.0         -80.63          76.95          123.3
   0.05777              -27.75         -4.161           67.4          46.23          8.999          4.785          40.09          17.99         -80.56          76.97          123.2
   0.06098              -27.75          -4.16          67.39          46.22          8.994          4.777          40.15          17.98         -80.49          76.99          123.2
   0.06419              -27.75         -4.158          67.37          46.22          8.989          4.769          40.23          17.97         -80.41          77.02          123.2
    0.0674              -27.75         -4.156          67.35          46.22          8.983           4.76           40.3          17.95         -80.32          77.05          123.2
    0.0706              -27.75         -4.154          67.33          46.21          8.977          4.751          40.39          17.94         -80.22          77.08          123.2
   0.07381              -27.75         -4.152          67.31          46.21           8.97           4.74          40.49          17.92         -80.11          77.12          123.2
   0.07702              -27.76          -4.15          67.29           46.2          8.962          4.728          40.59           17.9         -79.99          77.16          123.2
   0.08023              -27.76         -4.147          67.26           46.2          8.954          4.714          40.71          17.88         -79.86          77.21          123.2
   0.08344              -27.76         -4.144          67.23          46.19          8.944          4.699          40.85          17.86         -79.71          77.26          123.2
   0.08665              -27.76          -4.14          67.19          46.18          8.933          4.682           41.0          17.83         -79.54          77.31          123.2
   0.08986              -27.76         -4.136          67.15          46.18          8.921          4.663          41.17           17.8         -79.34          77.38          123.1
   0.09307              -27.76         -4.132          67.11          46.17          8.907          4.641          41.36          17.77         -79.13          77.45          123.1
   0.09628              -27.76         -4.126          67.06          46.16          8.891          4.617          41.58          17.73         -78.88          77.54          123.1
   0.09949              -27.76         -4.121           67.0          46.15          8.872          4.588          41.83          17.68         -78.59          77.63          123.1
    0.1027              -27.77         -4.114          66.93          46.13          8.851          4.555          42.12          17.63         -78.26          77.74          123.1
    0.1059              -27.77         -4.106          66.85          46.12          8.827          4.517          42.46          17.57         -77.88          77.87          123.0
    0.1091              -27.77         -4.096          66.76           46.1          8.798          4.472          42.86           17.5         -77.43          78.02          123.0
    0.1123              -27.77         -4.085          66.65          46.08          8.764           4.42          43.33          17.42          -76.9           78.2          122.9
    0.1155              -27.78         -4.072          66.52          46.05          8.723          4.357          43.88          17.32         -76.27          78.41          122.9
    0.1187              -27.78         -4.057          66.37          46.02          8.675          4.282          44.55           17.2         -75.52          78.66          122.8
